<svg width="84" height="85" viewBox="0 0 84 85" fill="none" xmlns="http://www.w3.org/2000/svg">
<path d="M72.5846 22.1333C68.9406 14.0043 63.8428 9.06312 57.4329 7.44812C46.1957 4.61374 35.1349 12.9955 34.6698 13.3536C34.392 13.567 34.2568 13.917 34.319 14.2615C34.381 14.6055 34.6305 14.8865 34.965 14.9893C45.2094 18.1417 47.7839 26.0003 48.2633 27.8941C47.1267 29.3679 43.2867 35.0059 42.4055 44.9056C41.1678 41.8354 39.2298 38.8459 36.2021 36.9704C36.3206 35.3193 36.9835 30.1308 40.6794 24.9563C40.8466 24.7229 40.8969 24.4255 40.8165 24.1495C40.7351 23.874 40.5323 23.6506 40.2655 23.5436C40.0143 23.4436 34.0456 21.1131 28.1236 23.7972C24.1762 25.5858 21.2368 29.1508 19.3865 34.3938C19.2886 34.6707 19.3271 34.9777 19.4897 35.2226C19.6523 35.4675 19.92 35.6219 20.2133 35.6393C20.2636 35.642 25.2271 35.9435 28.5174 36.5603C31.7758 37.1716 34.8679 38.3713 34.899 38.3842C34.9127 38.3894 34.9271 38.3915 34.9407 38.396C39.7577 41.1834 41.5959 47.4245 42.2948 51.7257C42.3725 53.1923 42.515 54.7255 42.7334 56.3273C42.7974 56.7933 43.1957 57.1359 43.66 57.1359C43.681 57.1359 43.7029 57.135 43.7249 57.1342C44.2156 57.1003 44.5967 56.6928 44.5967 56.2003C44.5967 55.9866 44.5839 54.0311 44.1572 51.3885C43.5155 37.4072 49.1197 29.8268 49.8936 28.852C50.6959 28.3853 54.9334 25.9828 59.8635 24.3395C65.1925 22.5631 71.5348 23.433 71.5997 23.4426C71.9342 23.4874 72.2741 23.3512 72.4787 23.0784C72.6833 22.8063 72.7245 22.4445 72.5846 22.1333ZM34.3875 36.2096C33.1384 35.782 31.0597 35.1332 28.863 34.722C26.4653 34.2716 23.3184 33.9909 21.5915 33.8594C23.2646 29.7567 25.7116 26.9506 28.8785 25.5096C32.6468 23.7941 36.5603 24.4423 38.4362 24.9307C35.43 29.5986 34.6104 34.0705 34.3875 36.2096ZM59.2715 22.5642C55.1624 23.9338 51.5878 25.7709 49.8708 26.7149C48.9992 23.9252 46.0559 17.2143 37.3014 13.8202C40.61 11.7118 48.9132 7.22708 56.9852 9.2652C62.4193 10.6376 66.8536 14.7253 70.1815 21.4253C67.8122 21.2617 63.3421 21.2068 59.2715 22.5642Z" fill="#B32166" stroke="#B32166" stroke-width="0.104167"/>
<path d="M1.944 75.189C1.656 75.189 1.422 75.126 1.242 75C1.08 74.856 0.981 74.676 0.945 74.46C0.927 74.226 0.981 73.965 1.107 73.677L8.532 56.775C8.694 56.415 8.883 56.163 9.099 56.019C9.333 55.857 9.585 55.776 9.855 55.776C10.125 55.776 10.368 55.857 10.584 56.019C10.818 56.163 11.007 56.415 11.151 56.775L18.603 73.677C18.747 73.965 18.801 74.226 18.765 74.46C18.747 74.694 18.657 74.874 18.495 75C18.333 75.126 18.108 75.189 17.82 75.189C17.496 75.189 17.235 75.108 17.037 74.946C16.839 74.766 16.677 74.514 16.551 74.19L14.553 69.573L15.633 70.14H4.023L5.13 69.573L3.159 74.19C2.997 74.532 2.826 74.784 2.646 74.946C2.466 75.108 2.232 75.189 1.944 75.189ZM9.828 58.557L5.481 68.79L4.833 68.277H14.823L14.229 68.79L9.882 58.557H9.828ZM25.9757 75.189C25.6157 75.189 25.3367 75.09 25.1387 74.892C24.9587 74.676 24.8687 74.379 24.8687 74.001V65.145L25.3547 66.684L18.5777 57.342C18.4157 57.108 18.3347 56.874 18.3347 56.64C18.3527 56.388 18.4517 56.181 18.6317 56.019C18.8117 55.857 19.0457 55.776 19.3337 55.776C19.5857 55.776 19.8107 55.839 20.0087 55.965C20.2067 56.073 20.3867 56.253 20.5487 56.505L26.2997 64.443H25.7327L31.4837 56.505C31.6817 56.235 31.8707 56.046 32.0507 55.938C32.2307 55.83 32.4467 55.776 32.6987 55.776C32.9867 55.776 33.2117 55.857 33.3737 56.019C33.5357 56.163 33.6167 56.361 33.6167 56.613C33.6347 56.847 33.5537 57.099 33.3737 57.369L26.6237 66.684L27.0827 65.145V74.001C27.0827 74.793 26.7137 75.189 25.9757 75.189ZM43.8687 75.243C42.6087 75.243 41.5017 75.081 40.5477 74.757C39.6117 74.415 38.8197 73.92 38.1717 73.272C37.5237 72.606 37.0377 71.787 36.7137 70.815C36.3897 69.843 36.2277 68.727 36.2277 67.467V56.91C36.2277 56.532 36.3177 56.253 36.4977 56.073C36.6957 55.875 36.9747 55.776 37.3347 55.776C37.6947 55.776 37.9647 55.875 38.1447 56.073C38.3427 56.253 38.4417 56.532 38.4417 56.91V67.359C38.4417 69.339 38.9007 70.824 39.8187 71.814C40.7367 72.786 42.0867 73.272 43.8687 73.272C45.6507 73.272 46.9917 72.786 47.8917 71.814C48.7917 70.824 49.2417 69.339 49.2417 67.359V56.91C49.2417 56.532 49.3407 56.253 49.5387 56.073C49.7367 55.875 50.0157 55.776 50.3757 55.776C50.7177 55.776 50.9787 55.875 51.1587 56.073C51.3567 56.253 51.4557 56.532 51.4557 56.91V67.467C51.4557 69.141 51.1677 70.563 50.5917 71.733C50.0337 72.903 49.1877 73.785 48.0537 74.379C46.9197 74.955 45.5247 75.243 43.8687 75.243ZM57.0862 75.189C56.7622 75.189 56.5102 75.099 56.3302 74.919C56.1502 74.721 56.0602 74.451 56.0602 74.109V56.856C56.0602 56.496 56.1502 56.226 56.3302 56.046C56.5102 55.866 56.7622 55.776 57.0862 55.776C57.3742 55.776 57.5992 55.839 57.7612 55.965C57.9412 56.073 58.1032 56.262 58.2472 56.532L65.6452 70.464H64.8352L72.2062 56.532C72.3502 56.262 72.5032 56.073 72.6652 55.965C72.8272 55.839 73.0612 55.776 73.3672 55.776C73.6732 55.776 73.9162 55.866 74.0962 56.046C74.2762 56.226 74.3662 56.496 74.3662 56.856V74.109C74.3662 74.451 74.2762 74.721 74.0962 74.919C73.9342 75.099 73.6822 75.189 73.3402 75.189C73.0162 75.189 72.7642 75.099 72.5842 74.919C72.4042 74.721 72.3142 74.451 72.3142 74.109V58.935H72.9622L66.2122 71.598C66.0862 71.832 65.9512 72.003 65.8072 72.111C65.6812 72.201 65.4922 72.246 65.2402 72.246C64.9882 72.246 64.7902 72.192 64.6462 72.084C64.5022 71.976 64.3762 71.814 64.2682 71.598L57.4372 58.908H58.0852V74.109C58.0852 74.451 57.9952 74.721 57.8152 74.919C57.6532 75.099 57.4102 75.189 57.0862 75.189ZM80.2109 75.189C79.8509 75.189 79.5719 75.09 79.3739 74.892C79.1939 74.676 79.1039 74.388 79.1039 74.028V56.937C79.1039 56.559 79.1939 56.271 79.3739 56.073C79.5719 55.875 79.8509 55.776 80.2109 55.776C80.5709 55.776 80.8409 55.875 81.0209 56.073C81.2189 56.271 81.3179 56.559 81.3179 56.937V74.028C81.3179 74.388 81.2279 74.676 81.0479 74.892C80.8679 75.09 80.5889 75.189 80.2109 75.189Z" fill="#B32166"/>
</svg>
